<?xml version="1.0" encoding="UTF-8" standalone="no"?>
<!DOCTYPE svg PUBLIC "-//W3C//DTD SVG 1.1//EN" "http://www.w3.org/Graphics/SVG/1.1/DTD/svg11.dtd">
<svg width="100%" height="100%" viewBox="0 0 280 239" version="1.1" xmlns="http://www.w3.org/2000/svg" xmlns:xlink="http://www.w3.org/1999/xlink" xml:space="preserve" xmlns:serif="http://www.serif.com/" style="fill-rule:evenodd;clip-rule:evenodd;stroke-linejoin:round;stroke-miterlimit:2;">
    <g id="logo" transform="matrix(0.792683,0,0,0.324728,0,0)">
        <g transform="matrix(1,0,0,1,9.862111,-51.700228)">
            <g transform="matrix(0.688136,0,0,1.679607,31.884065,-527.113452)">
                <path d="M601.47,490.252C616.227,488.837 630.224,491.083 643.279,498.447C659.363,507.448 671.125,522.57 675.89,540.375C680.805,558.235 678.415,577.317 669.247,593.414C660.331,608.785 645.663,619.975 628.483,624.513C621.301,626.422 594.476,631.446 593.041,618.613C592.995,613.641 591.435,597.487 595.378,594.218C604.806,585.987 627.834,592.567 635.306,578.666C650.82,549.803 633.075,521.864 600.113,528.531C598.881,529.072 597.667,529.652 596.472,530.271C590.57,533.358 585.579,538.414 583.353,544.762C579.047,557.038 581.226,643.405 581.35,662.365C581.411,671.746 583.008,684.415 580.17,693.269C573.81,701.937 545.717,702.666 544.613,691.24C543.574,669.614 543.305,646.202 544.042,624.477C544.851,600.648 541.504,568.382 544.753,545.621C546.091,535.964 549.619,526.741 555.068,518.657C566.633,501.496 581.821,493.966 601.47,490.252Z" style="fill-rule:nonzero;"/>
            </g>
            <g transform="matrix(0.588753,0,0,1.437274,-11.267766,-438.923629)">
                <path d="M462.913,440.201C469.988,439.434 478.675,438.802 485.071,442.504C488.099,444.256 490.316,446.8 491.264,450.2C495.347,464.847 494.247,585.824 491.984,605.342C490.847,615.149 488.687,625.425 483.704,634.026C473.185,652.253 455.785,665.49 435.413,670.764C415.944,675.892 394.958,672.298 377.704,662.161C360.284,651.767 347.719,634.866 342.783,615.19C336.18,589.145 341.398,566.668 354.851,544.109C362.38,534.432 368.881,527.996 380.182,521.556C394.74,513.57 413.483,510.078 429.875,513.236C442.341,515.638 437.373,541.24 434.837,549.517C431.647,559.926 411.077,553.424 402.738,557.782C394.648,562.011 389.318,567.124 385.591,575.962C381.279,586.271 381.24,597.87 385.482,608.207C389.221,617.127 395.294,623.503 404.323,627.091C413.462,630.762 423.709,630.51 432.657,626.394C454.446,616.458 450.246,585.065 450.217,565.332C450.283,546.008 449.737,527.924 449.746,508.47C449.754,489.967 446.303,467.517 452.107,449.616C453.901,444.082 457.911,442.236 462.913,440.201Z" style="fill-rule:nonzero;"/>
            </g>
            <g transform="matrix(0.588753,0,0,1.437274,-11.267766,-438.923629)">
                <path d="M565.581,512.214C611.265,507.262 641.559,536.382 645.511,580.233C646.77,594.2 648.326,609.166 629.486,609.889C611.894,611.242 598.991,610.025 580.917,610.914C559.741,611.955 549.66,595.726 561.476,578.219C565.783,571.839 594.575,574.035 604.315,574.022C588.277,525.566 531.337,555.72 547.623,608.943C562.614,641.256 586.607,629.079 611.173,628.552C631.87,628.108 644.515,666.663 601.464,671.129C561.747,675.25 524.526,667.251 508.665,626.327C490.305,578.956 512.553,522.114 565.581,512.214Z" style="fill-rule:nonzero;"/>
            </g>
            <g transform="matrix(0.588753,0,0,1.437274,-23.883149,-438.923629)">
                <path d="M127.795,512.35C139.802,510.327 163.884,512.37 173.927,519.242C180.176,523.518 179.096,548.391 172.551,553.768C164.971,559.994 150.345,554.495 141.231,555.178C103.299,553.327 92.266,595.465 113.698,620.756C126.883,632.668 146.526,629.025 161.748,627.432C178.583,625.671 178.033,647.623 177.884,658.366C173.988,666.663 165.891,669.508 157.339,670.901C133.664,674.758 111.354,672.262 91.523,657.763C44.096,623.089 51.837,538.036 108.653,517.033C115.668,514.435 120.443,513.411 127.795,512.35Z" style="fill-rule:nonzero;"/>
            </g>
            <g transform="matrix(0.688136,0,0,1.679607,-731.272392,-527.113452)">
                <path d="M1245.23,489.273C1261.52,488.086 1272.17,489.541 1287.08,496.299C1273.25,496.189 1282.48,487.439 1310.93,513.651C1318.05,521.827 1323.11,531.596 1325.67,542.134C1329.88,559.623 1327.62,579.387 1317.95,594.773C1307.79,610.79 1291.65,622.078 1273.12,626.124C1254.33,630.479 1234.58,627.071 1218.33,616.673C1166.92,583.639 1180.61,501.798 1245.23,489.273Z" style="fill:rgb(204,0,54);fill-rule:nonzero;"/>
            </g>
        </g>
    </g>
</svg>
